<svg width="164" height="37" viewBox="0 0 164 37" fill="none" xmlns="http://www.w3.org/2000/svg">
<path d="M18.4179 0.541608L25.3002 2.67429C31.6222 4.63337 35.1547 11.3324 33.1903 17.637L28.1164 36.8611L9.16533 30.236C2.8433 28.2769 -0.689196 21.5779 1.27529 15.2733L3.41386 8.40995C5.37831 2.10531 12.0959 -1.41745 18.4179 0.541608Z" fill="url(#paint0_linear_2_892)"/>
<path fill-rule="evenodd" clip-rule="evenodd" d="M14.0779 12.3801C13.7455 12.5715 13.6315 12.9955 13.8235 13.3271L16.5395 18.0184C16.5663 18.0647 16.6259 18.0806 16.6724 18.0539C16.7368 18.0168 16.8174 18.0639 16.8184 18.138C16.8191 18.1923 16.8639 18.2366 16.9183 18.2359L20.3396 18.1906C20.7235 18.1854 21.0307 17.871 21.0255 17.4881C21.0204 17.1053 20.705 16.7991 20.3212 16.8042L19.0821 16.8207C18.0828 16.8339 17.1544 16.3075 16.6546 15.4443L15.0275 12.6339C14.8355 12.3022 14.4104 12.1887 14.0779 12.3801Z" fill="white"/>
<path fill-rule="evenodd" clip-rule="evenodd" d="M20.5015 7.75071C20.6103 7.19454 21.1907 6.86159 21.704 7.10447C23.4951 7.9522 25.0554 9.33213 26.1217 11.1739C28.917 16.0021 27.2582 22.1758 22.4167 24.9634C17.5752 27.7509 11.3843 26.0967 8.58906 21.2685C5.79379 16.4404 7.45262 10.2666 12.2942 7.47899C13.6898 6.67545 15.1974 6.24101 16.7036 6.14532C17.2729 6.10908 17.6883 6.63669 17.579 7.19501C17.4929 7.63536 17.1032 7.94583 16.6549 7.98338C15.4773 8.08225 14.3025 8.43487 13.2113 9.06313C9.24713 11.3456 7.88893 16.4006 10.1776 20.3539C12.4663 24.3072 17.5354 25.6617 21.4996 23.3792C25.4638 21.0968 26.822 16.0418 24.5332 12.0885C23.69 10.632 22.4693 9.52828 21.0657 8.82924C20.6616 8.62803 20.4151 8.19274 20.5015 7.75071Z" fill="white"/>
<path d="M20.5045 18.1729L20.5 17.8288L20.5045 18.1729ZM20.4861 16.7865L20.4906 17.1306L20.4861 16.7865ZM15.1924 12.6162L14.8935 12.7882L15.1924 12.6162ZM14.2872 13.1374C14.1905 12.9703 14.2478 12.7569 14.4153 12.6605L14.0702 12.0645C13.5727 12.3509 13.4022 12.9853 13.6895 13.4815L14.2872 13.1374ZM17.0032 17.8287L14.2872 13.1374L13.6895 13.4815L16.4054 18.1727L17.0032 17.8287ZM20.5 17.8288L17.0786 17.8742L17.0878 18.5623L20.5091 18.517L20.5 17.8288ZM20.8453 17.4751C20.848 17.6679 20.6933 17.8262 20.5 17.8288L20.5091 18.517C21.0836 18.5094 21.5431 18.0389 21.5354 17.4659L20.8453 17.4751ZM20.4906 17.1306C20.684 17.1281 20.8428 17.2823 20.8453 17.4751L21.5354 17.4659C21.5278 16.8931 21.0559 16.4349 20.4815 16.4425L20.4906 17.1306ZM19.2516 17.1471L20.4906 17.1306L20.4815 16.4425L19.2425 16.4589L19.2516 17.1471ZM14.8935 12.7882L16.5206 15.5987L17.1183 15.2547L15.4912 12.4441L14.8935 12.7882ZM14.4153 12.6605C14.5828 12.5641 14.7968 12.6213 14.8935 12.7882L15.4912 12.4441C15.2039 11.948 14.5677 11.778 14.0702 12.0645L14.4153 12.6605ZM16.6382 18.125C16.6415 18.3655 16.839 18.5657 17.0878 18.5623L17.0786 17.8742C17.2185 17.8723 17.3266 17.9839 17.3284 18.1158L16.6382 18.125ZM19.2425 16.4589C18.368 16.4704 17.5556 16.0099 17.1183 15.2547L16.5206 15.5987C17.0828 16.5698 18.1274 17.162 19.2516 17.1471L19.2425 16.4589ZM17.0098 18.3343C16.8386 18.4329 16.6406 18.3053 16.6382 18.125L17.3284 18.1158C17.3239 17.7872 16.9646 17.5656 16.6647 17.7382L17.0098 18.3343ZM16.4054 18.1727C16.5277 18.3838 16.7983 18.4561 17.0098 18.3343L16.6647 17.7382C16.7832 17.6699 16.9348 17.7105 17.0032 17.8287L16.4054 18.1727Z" fill="white"/>
<path d="M26.5162 11.4034C25.4018 9.47849 23.77 8.03527 21.8972 7.14897L21.5027 7.97806C23.2121 8.78713 24.7011 10.1038 25.7193 11.8623L26.5162 11.4034ZM22.6427 25.8197C27.7043 22.9055 29.4385 16.4511 26.5162 11.4034L25.7193 11.8623C28.3875 16.471 26.8041 22.3642 22.1826 25.025L22.6427 25.8197ZM8.18654 21.9569C11.1088 27.0045 17.5811 28.734 22.6427 25.8197L22.1826 25.025C17.5611 27.6859 11.6517 26.1068 8.98347 21.4981L8.18654 21.9569ZM12.06 7.54062C6.99846 10.4549 5.26423 16.9093 8.18654 21.9569L8.98347 21.4981C6.31532 16.8894 7.89876 10.9962 12.5202 8.33536L12.06 7.54062ZM16.6703 6.14637C15.095 6.24646 13.5183 6.70104 12.06 7.54062L12.5202 8.33536C13.853 7.56796 15.2918 7.15355 16.7289 7.06217L16.6703 6.14637ZM13.4373 9.91949C14.4687 9.32578 15.578 8.99293 16.6894 8.89967L16.6124 7.98518C15.3687 8.08948 14.1282 8.46204 12.9772 9.12476L13.4373 9.91949ZM10.5721 20.5835C8.41037 16.8497 9.69318 12.0752 13.4373 9.91949L12.9772 9.12476C8.79297 11.534 7.35928 16.8696 9.77505 21.0423L10.5721 20.5835ZM21.2654 23.4409C17.5213 25.5966 12.7337 24.3173 10.5721 20.5835L9.77505 21.0423C12.1909 25.2151 17.5413 26.6447 21.7256 24.2356L21.2654 23.4409ZM24.1307 12.7769C26.2925 16.5107 25.0095 21.2851 21.2654 23.4409L21.7256 24.2356C25.9099 21.8265 27.3434 16.4909 24.9277 12.3181L24.1307 12.7769ZM20.8561 9.69871C22.1816 10.3588 23.334 11.4007 24.1307 12.7769L24.9277 12.3181C24.038 10.7813 22.7492 9.61576 21.2672 8.87776L20.8561 9.69871ZM16.7289 7.06217C16.9613 7.04738 17.1821 7.26666 17.1235 7.56618L18.0266 7.74193C18.1865 6.92472 17.5764 6.08879 16.6703 6.14637L16.7289 7.06217ZM21.2672 8.87776C21.0249 8.75698 20.907 8.51288 20.9491 8.29763L20.0459 8.12188C19.9151 8.79068 20.2904 9.41698 20.8561 9.69871L21.2672 8.87776ZM17.1235 7.56618C17.0814 7.78069 16.8815 7.96262 16.6124 7.98518L16.6894 8.89967C17.3168 8.84705 17.8963 8.40792 18.0266 7.74193L17.1235 7.56618ZM21.8972 7.14897C21.0806 6.76246 20.2053 7.30739 20.0459 8.12188L20.9491 8.29763C21.0074 7.99979 21.2927 7.87872 21.5027 7.97806L21.8972 7.14897Z" fill="white"/>
<path d="M50.6883 28.211C50.1598 28.211 49.7445 28.0684 49.4425 27.7833C49.1405 27.4791 48.9329 27.0038 48.8196 26.3575L45.4503 8.25049H47.5172L50.6033 25.4736H50.6317L55.6146 9.30561H56.4924C56.8321 9.30561 57.1058 9.41016 57.3134 9.61928C57.5211 9.80939 57.691 10.1135 57.823 10.5317L62.2399 25.4736H62.2682L65.3543 8.25049H67.4212L64.0519 26.3575C63.9386 27.0038 63.731 27.4791 63.429 27.7833C63.1271 28.0684 62.7118 28.211 62.1832 28.211H61.3339L56.5207 12.1286H56.4924L51.5376 28.211H50.6883ZM74.2054 28.4391C72.6199 28.4391 71.3458 27.9733 70.3831 27.0419C69.4205 26.0914 68.9392 24.8367 68.9392 23.2779V19.2003C68.9392 17.5654 69.4205 16.2537 70.3831 15.2652C71.3458 14.2577 72.6199 13.7539 74.2054 13.7539H76.5271C78.0371 13.7539 79.2546 14.2387 80.1794 15.2082C81.1043 16.1776 81.5668 17.4609 81.5668 19.0577V21.567H70.9777V23.2779C70.9777 24.2665 71.2703 25.0744 71.8554 25.7017C72.4595 26.31 73.2428 26.6142 74.2054 26.6142H76.3572C77.3009 26.6142 78.0654 26.3575 78.6505 25.8443C79.2357 25.3119 79.5283 24.6086 79.5283 23.7341H81.5102C81.5102 25.1409 81.0382 26.2815 80.0945 27.156C79.1507 28.0114 77.9049 28.4391 76.3572 28.4391H74.2054ZM79.5283 19.799V19.0577C79.5283 18.0121 79.2546 17.1757 78.7071 16.5484C78.1598 15.9021 77.4331 15.5788 76.5271 15.5788H74.2054C73.2428 15.5788 72.4595 15.9115 71.8554 16.5769C71.2703 17.2422 70.9777 18.1167 70.9777 19.2003V19.799H79.5283ZM90.7054 28.4391C90.0817 28.4391 89.4219 28.249 88.723 27.8688C88.0247 27.4696 87.4867 26.9753 87.1092 26.386V28.211H85.1273V8.25049H87.1659V15.6644C87.5811 15.0751 88.1096 14.6094 88.7514 14.2672C89.4116 13.925 90.091 13.7539 90.79 13.7539H92.8003C93.7632 13.7539 94.6117 13.982 95.3478 14.4383C96.1035 14.8755 96.6881 15.5028 97.1035 16.3203C97.5376 17.1187 97.755 18.0407 97.755 19.0862V22.7646C97.755 23.8862 97.5376 24.8747 97.1035 25.7302C96.6881 26.5856 96.0942 27.251 95.32 27.7262C94.5653 28.2014 93.687 28.4391 92.6869 28.4391H90.7054ZM92.6302 26.6142C93.5364 26.6142 94.2725 26.2625 94.8385 25.559C95.4241 24.8367 95.7159 23.9052 95.7159 22.7646V19.0862C95.7159 18.0407 95.4334 17.1948 94.8673 16.5484C94.3199 15.9021 93.6117 15.5788 92.7436 15.5788H90.8467C89.8652 15.5788 89.025 15.9401 88.3266 16.6624C87.6283 17.3848 87.2413 18.3353 87.1659 19.5139V22.9928C87.2036 23.6581 87.3924 24.2665 87.7321 24.8177C88.0719 25.369 88.506 25.8063 89.0343 26.1294C89.5631 26.4526 90.1198 26.6142 90.7054 26.6142H92.6302Z" fill="#424253"/>
<path d="M106.695 28.209C106.155 28.209 105.73 28.0666 105.422 27.7818C105.113 27.4778 104.9 27.0031 104.785 26.3574L101.275 8.25082H103.376L106.608 25.4743H106.637L111.095 9.32228H112.628C112.976 9.32228 113.255 9.42673 113.467 9.63564C113.68 9.82556 113.854 10.1294 113.989 10.5472L118.504 25.4743H118.532L121.684 8.25082H123.785L120.356 26.3574C120.24 27.0031 120.028 27.4778 119.719 27.7818C119.411 28.0666 118.986 28.209 118.446 28.209H117.398L112.658 12.1424H112.628L107.563 28.209H106.695ZM130.735 28.4369C129.114 28.4369 127.812 27.9432 126.828 26.9556C125.844 25.9681 125.352 24.6671 125.352 23.0529V19.1502C125.352 17.536 125.844 16.235 126.828 15.2475C127.832 14.26 128.653 13.7662 130.793 13.7662H133.167C134.806 13.7662 136.119 14.26 137.103 15.2475C138.106 16.235 138.608 17.536 138.608 19.1502V23.0529C138.608 24.6671 138.106 25.9681 137.103 26.9556C136.1 27.9432 134.768 28.4369 133.109 28.4369H130.735ZM132.254 26.145C133.755 26.145 134.355 25.9922 134.955 25.0755C135.573 24.4108 136.156 24.3055 136.156 23.2419L136.006 18.8109C135.406 17.8942 135.256 17.5886 134.805 16.9774C134.102 16.0227 133.305 16.0607 132.254 16.0607H130.454C129.45 16.0607 128.52 16.1599 127.902 16.8246C127.285 17.4703 127.152 18.0867 127.152 19.1502V23.0529C127.152 24.1354 127.304 24.8117 127.902 25.4574C128.5 26.1031 129.45 26.145 130.454 26.145H132.254ZM142.438 13.9667H143.659V16.2134C144.045 15.5488 145.429 14.9816 146.2 14.5639C146.745 14.057 145.844 13.9042 148.696 13.9042L149.812 13.9218V15.9079H148.611C147.111 15.9079 145.768 15.9079 144.86 16.8246C144.107 17.5843 143.659 18.6581 143.659 20.0333V28.1917H142.438V13.9667ZM162.479 28.209L156.265 20.95L153.864 23.0529V28.209H152.725V8.23291H153.864V20.95L161.959 13.9941H163.318L157.165 20.3389L163.768 28.209H162.479Z" fill="#424253"/>
<path d="M105.661 28.1939C105.133 28.1939 104.717 28.0513 104.415 27.7662C104.113 27.462 103.905 26.9868 103.793 26.3404L100.423 8.2334H102.49L105.576 25.4565H105.604L110.58 9.32033H111.48C111.821 9.32033 112.078 9.39307 112.286 9.60219C112.494 9.7923 112.664 10.0964 112.796 10.5147L116.733 25.6275L117.633 25.4565L120.785 8.2334H122.394L119.025 26.3404C118.911 26.9868 118.703 27.462 118.401 27.7662C118.1 28.0513 117.685 28.1939 117.156 28.1939H116.306L111.494 12.1115H111.465L106.51 28.1939H105.661ZM129.178 28.422C127.592 28.422 126.318 27.9278 125.356 26.9392C124.393 25.9507 123.912 24.6485 123.912 23.0327V19.1262C123.912 17.5103 124.393 16.2081 125.356 15.2196C126.338 14.2311 127.584 13.7513 129.188 13.7513H131.556C133.16 13.7513 134.444 14.2311 135.407 15.2196C136.388 16.2081 136.879 17.5103 136.879 19.1262V23.0327C136.879 24.6485 136.388 25.9507 135.407 26.9392C134.425 27.9278 133.123 28.422 131.5 28.422H129.178ZM131.5 26.5971C132.519 26.5971 133.836 26.2739 134.44 25.6275C135.045 24.9622 135.191 24.0973 135.191 23.0327V19.1262C135.191 18.0616 135.045 17.2061 134.44 16.5598C133.84 15.7377 132.538 15.5618 131.556 15.5618H129.235C128.253 15.5618 127.46 15.8944 126.856 16.5598C126.252 17.2061 125.95 18.0616 125.95 19.1262V23.0327C125.95 24.1163 126.243 24.9812 126.828 25.6275C127.413 26.2739 128.196 26.5971 129.178 26.5971H131.5ZM140.625 13.9649H142.607V16.1606C142.984 15.4952 143.551 14.9534 144.306 14.5353C145.08 14.1171 145.882 13.9079 146.712 13.9079H147.959V15.7614H146.712C145.505 15.7614 144.523 16.1511 143.768 16.9305C143.032 17.6909 142.664 18.7079 142.664 19.9816V28.1939H140.625V13.9649ZM160.231 28.1939L154.682 21.4643L152.728 23.4319V28.1939H150.689V8.2334H152.728V20.9226L159.721 13.9649H162.213L156.098 20.0672L162.666 28.1939H160.231Z" fill="#424253"/>
<defs>
<linearGradient id="paint0_linear_2_892" x1="61.3584" y1="-45.074" x2="8.32033" y2="71.7129" gradientUnits="userSpaceOnUse">
<stop stop-color="#63F4FD"/>
<stop offset="0.67619" stop-color="#8274FE"/>
<stop offset="0.875084" stop-color="#7C2BFF"/>
</linearGradient>
</defs>
</svg>
