<svg width="166" height="37" viewBox="0 0 166 37" fill="none" xmlns="http://www.w3.org/2000/svg">
<path d="M18.0073 0.541608L25.0147 2.67429C31.4517 4.63337 35.0484 11.3324 33.0483 17.637L27.8821 36.8611L8.58648 30.236C2.14951 28.2769 -1.44722 21.5779 0.552984 15.2733L2.73044 8.40996C4.7306 2.10531 11.5703 -1.41745 18.0073 0.541608Z" fill="url(#paint0_linear_2_795)"/>
<path fill-rule="evenodd" clip-rule="evenodd" d="M13.5884 12.3801C13.2499 12.5715 13.1338 12.9955 13.3293 13.3271L16.0947 18.0184C16.1221 18.0647 16.1827 18.0806 16.2301 18.0539C16.2956 18.0168 16.3777 18.0639 16.3787 18.138C16.3794 18.1923 16.425 18.2366 16.4805 18.2359L19.964 18.1906C20.3548 18.1854 20.6675 17.871 20.6623 17.4881C20.6571 17.1053 20.336 16.7991 19.9452 16.8042L18.6835 16.8207C17.6661 16.8339 16.7208 16.3075 16.2119 15.4443L14.5553 12.6339C14.3598 12.3022 13.9269 12.1887 13.5884 12.3801Z" fill="white"/>
<path fill-rule="evenodd" clip-rule="evenodd" d="M20.1288 7.75071C20.2396 7.19454 20.8305 6.86159 21.3531 7.10447C23.1768 7.9522 24.7655 9.33213 25.8512 11.1739C28.6973 16.0021 27.0083 22.1758 22.0788 24.9634C17.1492 27.7509 10.8458 26.0967 7.99973 21.2685C5.15364 16.4404 6.84263 10.2666 11.7722 7.47899C13.1932 6.67545 14.7283 6.24101 16.2618 6.14532C16.8414 6.10908 17.2644 6.63669 17.1532 7.19501C17.0655 7.63535 16.6687 7.94583 16.2122 7.98338C15.0132 8.08225 13.817 8.43487 12.706 9.06313C8.66976 11.3456 7.28687 16.4006 9.61712 20.3539C11.9475 24.3072 17.1087 25.6617 21.145 23.3792C25.1812 21.0968 26.5641 16.0418 24.2338 12.0885C23.3752 10.632 22.1324 9.52828 20.7032 8.82924C20.2918 8.62803 20.0407 8.19274 20.1288 7.75071Z" fill="white"/>
<path d="M20.1318 18.1729L20.1272 17.8288L20.1318 18.1729ZM20.1131 16.7865L20.1177 17.1306L20.1131 16.7865ZM14.7231 12.6162L14.4188 12.7882L14.7231 12.6162ZM13.8014 13.1374C13.703 12.9703 13.7614 12.7569 13.9319 12.6605L13.5805 12.0645C13.074 12.3509 12.9004 12.9853 13.1929 13.4815L13.8014 13.1374ZM16.5669 17.8287L13.8014 13.1374L13.1929 13.4815L15.9582 18.1727L16.5669 17.8287ZM20.1272 17.8288L16.6436 17.8742L16.653 18.5623L20.1365 18.517L20.1272 17.8288ZM20.4788 17.4751C20.4815 17.6679 20.3241 17.8262 20.1272 17.8288L20.1365 18.517C20.7215 18.5094 21.1893 18.0389 21.1815 17.4659L20.4788 17.4751ZM20.1177 17.1306C20.3145 17.1281 20.4763 17.2823 20.4788 17.4751L21.1815 17.4659C21.1737 16.8931 20.6933 16.4349 20.1084 16.4425L20.1177 17.1306ZM18.8561 17.1471L20.1177 17.1306L20.1084 16.4425L18.8468 16.4589L18.8561 17.1471ZM14.4188 12.7882L16.0755 15.5987L16.6841 15.2547L15.0274 12.4441L14.4188 12.7882ZM13.9319 12.6605C14.1024 12.5641 14.3203 12.6213 14.4188 12.7882L15.0274 12.4441C14.7349 11.948 14.0871 11.778 13.5805 12.0645L13.9319 12.6605ZM16.1952 18.125C16.1985 18.3655 16.3997 18.5657 16.653 18.5623L16.6436 17.8742C16.7861 17.8723 16.8961 17.9839 16.8979 18.1158L16.1952 18.125ZM18.8468 16.4589C17.9564 16.4704 17.1293 16.0099 16.6841 15.2547L16.0755 15.5987C16.6479 16.5698 17.7114 17.162 18.8561 17.1471L18.8468 16.4589ZM16.5735 18.3343C16.3993 18.4329 16.1977 18.3053 16.1952 18.125L16.8979 18.1158C16.8934 17.7872 16.5276 17.5656 16.2222 17.7382L16.5735 18.3343ZM15.9582 18.1727C16.0827 18.3838 16.3582 18.4561 16.5735 18.3343L16.2222 17.7382C16.3429 17.6699 16.4972 17.7105 16.5669 17.8287L15.9582 18.1727Z" fill="white"/>
<path d="M26.2528 11.4034C25.1182 9.47849 23.4567 8.03527 21.5499 7.14897L21.1482 7.97806C22.8887 8.78713 24.4048 10.1038 25.4414 11.8623L26.2528 11.4034ZM22.3089 25.8197C27.4625 22.9055 29.2283 16.4511 26.2528 11.4034L25.4414 11.8623C28.1582 16.471 26.5459 22.3642 21.8405 25.025L22.3089 25.8197ZM7.58991 21.9569C10.5653 27.0045 17.1553 28.734 22.3089 25.8197L21.8405 25.025C17.1349 27.6859 11.1181 26.1068 8.40133 21.4981L7.58991 21.9569ZM11.5338 7.54062C6.38023 10.4549 4.61447 16.9093 7.58991 21.9569L8.40133 21.4981C5.68467 16.8894 7.29691 10.9962 12.0024 8.33536L11.5338 7.54062ZM16.2279 6.14637C14.624 6.24646 13.0186 6.70104 11.5338 7.54062L12.0024 8.33536C13.3594 7.56796 14.8244 7.15355 16.2876 7.06217L16.2279 6.14637ZM12.9361 9.91949C13.9863 9.32578 15.1157 8.99293 16.2474 8.89967L16.1689 7.98518C14.9027 8.08948 13.6396 8.46204 12.4677 9.12476L12.9361 9.91949ZM10.0188 20.5835C7.81781 16.8497 9.12395 12.0752 12.9361 9.91949L12.4677 9.12476C8.20737 11.534 6.74761 16.8696 9.20731 21.0423L10.0188 20.5835ZM20.9066 23.4409C17.0944 25.5966 12.2197 24.3173 10.0188 20.5835L9.20731 21.0423C11.6671 25.2151 17.1148 26.6447 21.3751 24.2356L20.9066 23.4409ZM23.824 12.7769C26.025 16.5107 24.7188 21.2851 20.9066 23.4409L21.3751 24.2356C25.6355 21.8265 27.0951 16.4909 24.6354 12.3181L23.824 12.7769ZM20.4898 9.69871C21.8394 10.3588 23.0128 11.4007 23.824 12.7769L24.6354 12.3181C23.7296 10.7813 22.4173 9.61576 20.9084 8.87776L20.4898 9.69871ZM16.2876 7.06217C16.5243 7.04738 16.749 7.26666 16.6894 7.56618L17.6089 7.74193C17.7717 6.92472 17.1505 6.08879 16.2279 6.14637L16.2876 7.06217ZM20.9084 8.87776C20.6617 8.75698 20.5417 8.51288 20.5845 8.29763L19.6649 8.12188C19.5317 8.79068 19.9138 9.41698 20.4898 9.69871L20.9084 8.87776ZM16.6894 7.56618C16.6465 7.78069 16.443 7.96262 16.1689 7.98518L16.2474 8.89967C16.8862 8.84705 17.4762 8.40792 17.6089 7.74193L16.6894 7.56618ZM21.5499 7.14897C20.7184 6.76246 19.8272 7.30739 19.6649 8.12188L20.5845 8.29763C20.6439 7.99979 20.9344 7.87872 21.1482 7.97806L21.5499 7.14897Z" fill="white"/>
<path d="M50.8645 28.211C50.3264 28.211 49.9036 28.0684 49.596 27.7833C49.2886 27.4791 49.0772 27.0038 48.9618 26.3575L45.5313 8.25049H47.6357L50.778 25.4736H50.8068L55.8804 9.30561H56.7742C57.12 9.30561 57.3987 9.41016 57.6101 9.61928C57.8215 9.80939 57.9945 10.1135 58.129 10.5317L62.6262 25.4736H62.655L65.7972 8.25049H67.9016L64.4711 26.3575C64.3558 27.0038 64.1444 27.4791 63.8369 27.7833C63.5295 28.0684 63.1066 28.211 62.5685 28.211H61.7037L56.803 12.1286H56.7742L51.7293 28.211H50.8645ZM74.8092 28.4391C73.1949 28.4391 71.8977 27.9733 70.9175 27.0419C69.9374 26.0914 69.4473 24.8367 69.4473 23.2779V19.2003C69.4473 17.5654 69.9374 16.2537 70.9175 15.2652C71.8977 14.2577 73.1949 13.7539 74.8092 13.7539H77.1731C78.7106 13.7539 79.9502 14.2387 80.8919 15.2082C81.8335 16.1776 82.3044 17.4609 82.3044 19.0577V21.567H71.5228V23.2779C71.5228 24.2665 71.8207 25.0744 72.4165 25.7017C73.0315 26.31 73.8291 26.6142 74.8092 26.6142H77.0001C77.961 26.6142 78.7393 26.3575 79.3352 25.8443C79.931 25.3119 80.2289 24.6086 80.2289 23.7341H82.2468C82.2468 25.1409 81.7663 26.2815 80.8054 27.156C79.8445 28.0114 78.576 28.4391 77.0001 28.4391H74.8092ZM80.2289 19.799V19.0577C80.2289 18.0121 79.9502 17.1757 79.3928 16.5484C78.8355 15.9021 78.0956 15.5788 77.1731 15.5788H74.8092C73.8291 15.5788 73.0315 15.9115 72.4165 16.5769C71.8207 17.2422 71.5228 18.1167 71.5228 19.2003V19.799H80.2289ZM91.6092 28.4391C90.9742 28.4391 90.3023 28.249 89.5908 27.8688C88.8797 27.4696 88.332 26.9753 87.9476 26.386V28.211H85.9297V8.25049H88.0053V15.6644C88.4282 15.0751 88.9662 14.6094 89.6197 14.2672C90.2919 13.925 90.9837 13.7539 91.6953 13.7539H93.7422C94.7226 13.7539 95.5866 13.982 96.3361 14.4383C97.1054 14.8755 97.7007 15.5028 98.1237 16.3203C98.5656 17.1187 98.787 18.0407 98.787 19.0862V22.7646C98.787 23.8862 98.5656 24.8747 98.1237 25.7302C97.7007 26.5856 97.096 27.251 96.3077 27.7262C95.5393 28.2014 94.645 28.4391 93.6268 28.4391H91.6092ZM93.569 26.6142C94.4917 26.6142 95.2412 26.2625 95.8175 25.559C96.4137 24.8367 96.7108 23.9052 96.7108 22.7646V19.0862C96.7108 18.0407 96.4231 17.1948 95.8468 16.5484C95.2894 15.9021 94.5683 15.5788 93.6845 15.5788H91.753C90.7537 15.5788 89.8983 15.9401 89.1872 16.6624C88.4761 17.3848 88.0822 18.3353 88.0053 19.5139V22.9928C88.0438 23.6581 88.236 24.2665 88.5818 24.8177C88.9278 25.369 89.3698 25.8063 89.9077 26.1294C90.4462 26.4526 91.013 26.6142 91.6092 26.6142H93.569Z" fill="#424253"/>
<path d="M107.889 28.209C107.34 28.209 106.907 28.0666 106.593 27.7818C106.279 27.4778 106.062 27.0031 105.945 26.3574L102.371 8.25082H104.51L107.801 25.4743H107.83L112.37 9.32228H113.931C114.285 9.32228 114.569 9.42673 114.785 9.63564C115.001 9.82556 115.179 10.1294 115.316 10.5472L119.913 25.4743H119.942L123.151 8.25082H125.29L121.799 26.3574C121.681 27.0031 121.465 27.4778 121.15 27.7818C120.837 28.0666 120.404 28.209 119.854 28.209H118.787L113.961 12.1424H113.931L108.774 28.209H107.889ZM132.367 28.4369C130.717 28.4369 129.39 27.9432 128.389 26.9556C127.387 25.9681 126.886 24.6671 126.886 23.0529V19.1502C126.886 17.536 127.387 16.235 128.389 15.2475C129.411 14.26 130.247 13.7662 132.426 13.7662H134.842C136.512 13.7662 137.848 14.26 138.85 15.2475C139.872 16.235 140.383 17.536 140.383 19.1502V23.0529C140.383 24.6671 139.872 25.9681 138.85 26.9556C137.829 27.9432 136.473 28.4369 134.783 28.4369H132.367ZM133.914 26.145C135.441 26.145 136.053 25.9922 136.664 25.0755C137.293 24.4108 137.886 24.3055 137.886 23.2419L137.733 18.8109C137.122 17.8942 136.969 17.5886 136.511 16.9774C135.795 16.0227 134.983 16.0607 133.914 16.0607H132.08C131.058 16.0607 130.111 16.1599 129.483 16.8246C128.854 17.4703 128.719 18.0867 128.719 19.1502V23.0529C128.719 24.1354 128.873 24.8117 129.483 25.4574C130.091 26.1031 131.058 26.145 132.08 26.145H133.914ZM144.282 13.9667H145.526V16.2134C145.919 15.5488 147.327 14.9816 148.113 14.5639C148.668 14.057 147.751 13.9042 150.654 13.9042L151.79 13.9218V15.9079H150.568C149.04 15.9079 147.673 15.9079 146.748 16.8246C145.982 17.5843 145.526 18.6581 145.526 20.0333V28.1917H144.282V13.9667ZM164.688 28.209L158.36 20.95L155.916 23.0529V28.209H154.757V8.23291H155.916V20.95L164.158 13.9941H165.542L159.277 20.3389L166 28.209H164.688Z" fill="#424253"/>
<path d="M106.836 28.1939C106.299 28.1939 105.876 28.0513 105.568 27.7662C105.261 27.462 105.049 26.9868 104.934 26.3404L101.504 8.2334H103.608L106.75 25.4565H106.779L111.845 9.32033H112.762C113.108 9.32033 113.371 9.39307 113.582 9.60219C113.794 9.7923 113.967 10.0964 114.101 10.5147L118.11 25.6275L119.027 25.4565L122.235 8.2334H123.874L120.444 26.3404C120.328 26.9868 120.116 27.462 119.809 27.7662C119.502 28.0513 119.079 28.1939 118.541 28.1939H117.676L112.776 12.1115H112.746L107.701 28.1939H106.836ZM130.781 28.422C129.167 28.422 127.869 27.9278 126.89 26.9392C125.909 25.9507 125.419 24.6485 125.419 23.0327V19.1262C125.419 17.5103 125.909 16.2081 126.89 15.2196C127.889 14.2311 129.158 13.7513 130.792 13.7513H133.203C134.836 13.7513 136.143 14.2311 137.123 15.2196C138.123 16.2081 138.622 17.5103 138.622 19.1262V23.0327C138.622 24.6485 138.123 25.9507 137.123 26.9392C136.124 27.9278 134.798 28.422 133.145 28.422H130.781ZM133.145 26.5971C134.183 26.5971 135.524 26.2739 136.139 25.6275C136.755 24.9622 136.903 24.0973 136.903 23.0327V19.1262C136.903 18.0616 136.755 17.2061 136.139 16.5598C135.528 15.7377 134.202 15.5618 133.203 15.5618H130.839C129.84 15.5618 129.032 15.8944 128.417 16.5598C127.802 17.2061 127.495 18.0616 127.495 19.1262V23.0327C127.495 24.1163 127.793 24.9812 128.389 25.6275C128.984 26.2739 129.782 26.5971 130.781 26.5971H133.145ZM142.437 13.9649H144.454V16.1606C144.839 15.4952 145.416 14.9534 146.184 14.5353C146.973 14.1171 147.789 13.9079 148.634 13.9079H149.903V15.7614H148.634C147.405 15.7614 146.405 16.1511 145.636 16.9305C144.887 17.6909 144.512 18.7079 144.512 19.9816V28.1939H142.437V13.9649ZM162.399 28.1939L156.749 21.4643L154.76 23.4319V28.1939H152.684V8.2334H154.76V20.9226L161.88 13.9649H164.417L158.19 20.0672L164.878 28.1939H162.399Z" fill="#424253"/>
<defs>
<linearGradient id="paint0_linear_2_795" x1="61.7285" y1="-45.074" x2="9.32038" y2="72.424" gradientUnits="userSpaceOnUse">
<stop stop-color="#63F4FD"/>
<stop offset="0.67619" stop-color="#8274FE"/>
<stop offset="0.875084" stop-color="#7C2BFF"/>
</linearGradient>
</defs>
</svg>
