<svg width="23" height="23" viewBox="0 0 23 23" fill="none" xmlns="http://www.w3.org/2000/svg">
<path d="M4.94644 0.893555C2.62262 0.893555 0.720703 2.83 0.720703 5.19613V18.5478C0.720703 20.9138 2.62257 22.8496 4.94644 22.8496H18.0597C20.3835 22.8496 22.2847 20.9139 22.2847 18.5478V5.19613C22.2847 2.83005 20.3835 0.893555 18.0597 0.893555H4.94644ZM6.00928 4.51675C7.1235 4.51675 7.80982 5.26152 7.831 6.2405C7.831 7.19788 7.12346 7.96358 5.98773 7.96358H5.96682C4.8738 7.96358 4.16734 7.19792 4.16734 6.2405C4.16734 5.26154 4.8952 4.51675 6.00928 4.51675ZM15.6112 9.09242C17.754 9.09242 19.3604 10.5185 19.3604 13.583V19.3039H16.1039V13.9666C16.1039 12.6253 15.6325 11.7103 14.454 11.7103C13.5543 11.7103 13.018 12.327 12.7826 12.9228C12.6966 13.136 12.6754 13.4337 12.6754 13.7319V19.3039H9.41885C9.41885 19.3039 9.46159 10.2626 9.41885 9.3264H12.6761V10.7393C13.1089 10.0595 13.883 9.09242 15.6112 9.09242ZM4.35943 9.32712H7.616V19.304H4.35943V9.32712Z" fill="#37434E"/>
</svg>
