<svg width="28" height="23" viewBox="0 0 28 23" fill="none" xmlns="http://www.w3.org/2000/svg">
<path d="M27.489 3.00039C26.4885 3.4518 25.4136 3.75681 24.2837 3.89467C25.4496 3.18436 26.3218 2.06641 26.7377 0.749425C25.6423 1.41189 24.4435 1.87819 23.1933 2.12806C22.3526 1.21409 21.239 0.608299 20.0255 0.404734C18.812 0.201169 17.5664 0.411222 16.4822 1.00228C15.3979 1.59334 14.5357 2.53233 14.0293 3.67348C13.5229 4.81463 13.4007 6.09408 13.6816 7.3132C11.4621 7.19973 9.29078 6.61235 7.30864 5.58918C5.3265 4.56601 3.5778 3.12991 2.17604 1.37408C1.69674 2.2159 1.42115 3.19193 1.42115 4.2314C1.42061 5.16716 1.64694 6.08858 2.08004 6.91392C2.51314 7.73926 3.13963 8.443 3.90391 8.96268C3.01754 8.93397 2.15073 8.69011 1.37562 8.25141V8.32461C1.37553 9.63705 1.8214 10.9091 2.63759 11.9249C3.45377 12.9407 4.59 13.6378 5.85346 13.8977C5.03121 14.1243 4.16913 14.1577 3.33235 13.9953C3.68883 15.1246 4.38321 16.1121 5.31829 16.8196C6.25336 17.5271 7.38232 17.9192 8.54712 17.9409C6.56981 19.5213 4.12785 20.3786 1.61407 20.3749C1.16878 20.375 0.723861 20.3485 0.281616 20.2956C2.83325 21.966 5.80354 22.8525 8.8371 22.8491C19.1061 22.8491 24.7199 14.1893 24.7199 6.67878C24.7199 6.43478 24.7139 6.18833 24.7031 5.94432C25.795 5.14029 26.7376 4.14465 27.4866 3.00405L27.489 3.00039Z" fill="#37434E"/>
</svg>
