<svg width="27" height="23" viewBox="0 0 27 23" fill="none" xmlns="http://www.w3.org/2000/svg">
<path d="M26.1215 5.53868C26.0066 8.07286 24.2644 11.5427 20.8948 15.9483C17.4103 20.5488 14.4618 22.8491 12.0495 22.8491C10.5561 22.8491 9.29252 21.4456 8.25865 18.6385L6.19091 10.9189C5.42509 8.11185 4.60182 6.7083 3.72112 6.7083C3.52966 6.7083 2.85956 7.11767 1.71082 7.93641L0.504639 6.35742C1.76825 5.22678 3.01272 4.09614 4.23803 2.96551C5.92284 1.48399 7.18646 0.704244 8.02887 0.626265C10.02 0.431331 11.2453 1.81538 11.7048 4.77842C12.2026 7.9754 12.5472 9.96376 12.7387 10.7435C13.3131 13.3947 13.9449 14.7202 14.6341 14.7202C15.1702 14.7202 15.9743 13.8625 17.0465 12.1471C18.1186 10.4316 18.693 9.12555 18.7696 8.22883C18.9227 6.74731 18.3484 6.00655 17.0465 6.00655C16.4338 6.00655 15.802 6.14301 15.151 6.41593C16.4146 2.24426 18.827 0.216918 22.3881 0.333887C25.0302 0.411866 26.2747 2.14677 26.1215 5.53868Z" fill="#37434E"/>
</svg>
